<svg width="320" height="320" viewBox="0 0 320 320" fill="none" xmlns="http://www.w3.org/2000/svg">
<rect x="2" y="2" width="316" height="316" stroke="white" stroke-width="4"/>
<path d="M40.5938 171.688C40.5938 174.104 41.4896 176.458 43.2812 178.75C45.6979 181.75 48.9271 183.271 52.9688 183.312V176.375C50.5104 176.375 48.8229 175.292 47.9062 173.125C47.6562 172.542 47.5312 172.062 47.5312 171.688V150.625C47.5312 149.5 48.0521 148.417 49.0938 147.375C50.1771 146.417 51.4688 145.917 52.9688 145.875V138.938C48.2604 138.938 44.7188 140.938 42.3438 144.938C41.1771 146.896 40.5938 148.792 40.5938 150.625V171.688ZM56.1562 183.312C59.4479 183.312 62.3021 182.021 64.7188 179.438C66.8021 177.146 67.8438 174.542 67.8438 171.625L61.0938 170C61.0938 170.458 61.0729 170.75 61.0312 170.875C61.0312 171.75 60.9271 172.5 60.7188 173.125C60.3854 173.958 59.8438 174.646 59.0938 175.188C58.3438 175.729 57.6562 176.062 57.0312 176.188L56.1562 176.375V183.312ZM56.1562 145.875C56.1562 145.875 56.6979 146.042 57.7812 146.375C59.1979 147.083 60.1771 148.104 60.7188 149.438C60.9271 150.062 61.0312 150.771 61.0312 151.562V152.5L67.8438 150.75C67.8438 147.542 66.5104 144.688 63.8438 142.188C61.4688 140.021 58.9062 138.938 56.1562 138.938V145.875ZM71.5312 170.938V139.25H78.5312V170.938C78.5729 173.271 79.8438 174.938 82.3438 175.938C82.9688 176.188 83.4896 176.312 83.9062 176.312V183.312C81.5312 183.312 79.1354 182.479 76.7188 180.812C73.3021 178.354 71.5729 175.062 71.5312 170.938ZM87.1562 183.312V176.312C88.2396 176.312 89.3646 175.854 90.5312 174.938C91.8229 173.854 92.4896 172.521 92.5312 170.938V139.25H99.4688V170.938C99.4688 175.646 97.3854 179.167 93.2188 181.5C91.0938 182.708 89.0729 183.312 87.1562 183.312ZM104.281 183V139.25H111.281V183H104.281ZM114.469 163.25V156.438H118.656C121.698 156.438 123.344 154.958 123.594 152C123.594 151.75 123.594 151.5 123.594 151.25C123.302 147.958 121.656 146.229 118.656 146.062H114.469V139.25H119.219C126.802 139.375 130.615 143.333 130.656 151.125C130.656 157.167 128.74 160.938 124.906 162.438C123.323 162.979 121.427 163.25 119.219 163.25C119.135 163.25 117.552 163.25 114.469 163.25ZM134.094 171.688C134.094 174.104 134.99 176.458 136.781 178.75C139.198 181.75 142.427 183.271 146.469 183.312V176.375C144.01 176.375 142.323 175.292 141.406 173.125C141.156 172.542 141.031 172.062 141.031 171.688V150.625C141.031 149.5 141.552 148.417 142.594 147.375C143.677 146.417 144.969 145.917 146.469 145.875V138.938C141.76 138.938 138.219 140.938 135.844 144.938C134.677 146.896 134.094 148.792 134.094 150.625V171.688ZM149.656 183.312C152.948 183.312 155.802 182.021 158.219 179.438C160.302 177.146 161.344 174.542 161.344 171.625L154.594 170C154.594 170.458 154.573 170.75 154.531 170.875C154.531 171.75 154.427 172.5 154.219 173.125C153.885 173.958 153.344 174.646 152.594 175.188C151.844 175.729 151.156 176.062 150.531 176.188L149.656 176.375V183.312ZM149.656 145.875C149.656 145.875 150.198 146.042 151.281 146.375C152.698 147.083 153.677 148.104 154.219 149.438C154.427 150.062 154.531 150.771 154.531 151.562V152.5L161.344 150.75C161.344 147.542 160.01 144.688 157.344 142.188C154.969 140.021 152.406 138.938 149.656 138.938V145.875ZM164.844 183L173.094 146.312H174.031L176.906 159.562L171.719 183H164.844ZM176.406 176.75L177.844 169.938H182.531L175.781 139.25H182.656L192.719 183H185.781L184.406 176.75H176.406ZM196.656 183V139.25H203.656V183H196.656ZM206.281 161.688L216.281 139.25H223.344L213.344 161.688L223.594 183H216.594L206.281 161.688ZM227.219 183V139.25H249.969V146.125H234.219V157.75H244.094V164.75H234.219V176.062H249.969V183H227.219ZM253.844 173.125L260.156 170.875C260.406 173.583 261.885 175.458 264.594 176.5C265.094 176.667 265.344 176.75 265.344 176.75V183.188C261.76 183.188 258.719 181.646 256.219 178.562C254.677 176.604 253.885 174.792 253.844 173.125ZM254.344 151.125C254.344 146.583 256.302 143.167 260.219 140.875C262.052 139.833 263.76 139.292 265.344 139.25V145.812C264.052 146.021 262.927 146.771 261.969 148.062C261.344 148.979 261.031 149.958 261.031 151C261.031 153.167 262.594 154.896 265.719 156.188C266.469 156.479 267.635 156.875 269.219 157.375C271.219 158 272.615 158.5 273.406 158.875C277.031 160.667 279.385 162.792 280.469 165.25C281.094 166.708 281.406 168.312 281.406 170.062C281.406 173.729 279.99 176.917 277.156 179.625C274.615 182 271.76 183.188 268.594 183.188V176.75C270.177 176.667 271.594 175.917 272.844 174.5C273.885 173.25 274.406 171.812 274.406 170.188C274.406 167.646 272.635 165.729 269.094 164.438C268.344 164.146 267.177 163.771 265.594 163.312C263.844 162.812 262.656 162.417 262.031 162.125C258.531 160.583 256.281 158.604 255.281 156.188C254.656 154.729 254.344 153.042 254.344 151.125ZM268.594 145.812V139.25C272.177 139.25 275.177 140.792 277.594 143.875C278.885 145.542 279.573 147.062 279.656 148.438L273.219 150.562C273.052 149.312 272.573 148.292 271.781 147.5C271.031 146.708 270.323 146.229 269.656 146.062L268.594 145.812Z" fill="white"/>
<line x1="71" y1="202" x2="250" y2="202" stroke="white" stroke-width="2"/>
</svg>
