<svg width="145" height="28" viewBox="0 0 145 28" fill="none" xmlns="http://www.w3.org/2000/svg">
<path d="M8.46582 2.72852C11.598 2.72852 13.8835 3.40365 15.3223 4.75391C16.7611 6.0931 17.4805 7.94141 17.4805 10.2988C17.4805 11.3613 17.32 12.3796 16.999 13.3535C16.6781 14.3164 16.1523 15.1742 15.4219 15.9268C14.7025 16.6794 13.7396 17.277 12.5332 17.7197C11.3268 18.1514 9.83822 18.3672 8.06738 18.3672H5.85938V27H0.712891V2.72852H8.46582ZM8.2002 6.94531H5.85938V14.1504H7.55273C8.51562 14.1504 9.35124 14.0231 10.0596 13.7686C10.7679 13.514 11.3158 13.1156 11.7031 12.5732C12.0905 12.0309 12.2842 11.3337 12.2842 10.4814C12.2842 9.28613 11.9521 8.40072 11.2881 7.8252C10.624 7.23861 9.59473 6.94531 8.2002 6.94531ZM38.5312 17.6865C38.5312 19.236 38.321 20.6084 37.9004 21.8037C37.4909 22.999 36.8877 24.0117 36.0908 24.8418C35.305 25.6608 34.3532 26.2806 33.2354 26.7012C32.1286 27.1217 30.8779 27.332 29.4834 27.332C28.1774 27.332 26.9766 27.1217 25.8809 26.7012C24.7962 26.2806 23.8499 25.6608 23.042 24.8418C22.2451 24.0117 21.6253 22.999 21.1826 21.8037C20.751 20.6084 20.5352 19.236 20.5352 17.6865C20.5352 15.6279 20.9004 13.8848 21.6309 12.457C22.3613 11.0293 23.4017 9.94466 24.752 9.20312C26.1022 8.46159 27.7126 8.09082 29.583 8.09082C31.3206 8.09082 32.859 8.46159 34.1982 9.20312C35.5485 9.94466 36.6055 11.0293 37.3691 12.457C38.1439 13.8848 38.5312 15.6279 38.5312 17.6865ZM25.6982 17.6865C25.6982 18.904 25.8311 19.9277 26.0967 20.7578C26.3623 21.5879 26.7773 22.2132 27.3418 22.6338C27.9062 23.0544 28.6423 23.2646 29.5498 23.2646C30.4463 23.2646 31.1712 23.0544 31.7246 22.6338C32.2891 22.2132 32.6986 21.5879 32.9531 20.7578C33.2188 19.9277 33.3516 18.904 33.3516 17.6865C33.3516 16.458 33.2188 15.4398 32.9531 14.6318C32.6986 13.8128 32.2891 13.1986 31.7246 12.7891C31.1602 12.3796 30.4242 12.1748 29.5166 12.1748C28.1774 12.1748 27.2035 12.6341 26.5947 13.5527C25.9971 14.4714 25.6982 15.8493 25.6982 17.6865ZM53.0742 8.09082C53.3288 8.09082 53.6221 8.10742 53.9541 8.14062C54.2972 8.16276 54.5739 8.19596 54.7842 8.24023L54.4023 12.9883C54.2363 12.9329 53.9984 12.8942 53.6885 12.8721C53.3896 12.8389 53.1296 12.8223 52.9082 12.8223C52.2552 12.8223 51.6188 12.9053 50.999 13.0713C50.3903 13.2373 49.8424 13.5085 49.3555 13.8848C48.8685 14.25 48.4811 14.737 48.1934 15.3457C47.9167 15.9434 47.7783 16.6794 47.7783 17.5537V27H42.7148V8.43945H46.5498L47.2969 11.5605H47.5459C47.9111 10.9297 48.3649 10.3542 48.9072 9.83398C49.4606 9.30273 50.0859 8.88216 50.7832 8.57227C51.4915 8.2513 52.2552 8.09082 53.0742 8.09082ZM65.9736 23.2979C66.527 23.2979 67.0638 23.2425 67.584 23.1318C68.1152 23.0212 68.641 22.8828 69.1611 22.7168V26.4854C68.6188 26.7288 67.9437 26.9281 67.1357 27.083C66.3389 27.249 65.4645 27.332 64.5127 27.332C63.4059 27.332 62.4098 27.1549 61.5244 26.8008C60.6501 26.4355 59.9583 25.8102 59.4492 24.9248C58.9512 24.0283 58.7021 22.7832 58.7021 21.1895V12.2412H56.2783V10.0996L59.0674 8.40625L60.5283 4.48828H63.7656V8.43945H68.9619V12.2412H63.7656V21.1895C63.7656 21.8978 63.9648 22.429 64.3633 22.7832C64.7728 23.1263 65.3096 23.2979 65.9736 23.2979ZM83.1895 12.2412H78.8066V27H73.7432V12.2412H70.9541V9.80078L73.7432 8.43945V7.07812C73.7432 5.49544 74.0088 4.26693 74.54 3.39258C75.0824 2.50716 75.8405 1.88737 76.8145 1.5332C77.7995 1.16797 78.9616 0.985352 80.3008 0.985352C81.2858 0.985352 82.1823 1.06836 82.9902 1.23438C83.7982 1.38932 84.4567 1.56641 84.9658 1.76562L83.6709 5.48438C83.2835 5.36263 82.863 5.25195 82.4092 5.15234C81.9554 5.05273 81.4352 5.00293 80.8486 5.00293C80.1403 5.00293 79.6201 5.21875 79.2881 5.65039C78.9671 6.07096 78.8066 6.61328 78.8066 7.27734V8.43945H83.1895V12.2412ZM102.979 17.6865C102.979 19.236 102.768 20.6084 102.348 21.8037C101.938 22.999 101.335 24.0117 100.538 24.8418C99.7523 25.6608 98.8005 26.2806 97.6826 26.7012C96.5758 27.1217 95.3252 27.332 93.9307 27.332C92.6247 27.332 91.4238 27.1217 90.3281 26.7012C89.2435 26.2806 88.2972 25.6608 87.4893 24.8418C86.6924 24.0117 86.0726 22.999 85.6299 21.8037C85.1982 20.6084 84.9824 19.236 84.9824 17.6865C84.9824 15.6279 85.3477 13.8848 86.0781 12.457C86.8086 11.0293 87.849 9.94466 89.1992 9.20312C90.5495 8.46159 92.1598 8.09082 94.0303 8.09082C95.7679 8.09082 97.3063 8.46159 98.6455 9.20312C99.9958 9.94466 101.053 11.0293 101.816 12.457C102.591 13.8848 102.979 15.6279 102.979 17.6865ZM90.1455 17.6865C90.1455 18.904 90.2783 19.9277 90.5439 20.7578C90.8096 21.5879 91.2246 22.2132 91.7891 22.6338C92.3535 23.0544 93.0895 23.2646 93.9971 23.2646C94.8936 23.2646 95.6185 23.0544 96.1719 22.6338C96.7363 22.2132 97.1458 21.5879 97.4004 20.7578C97.666 19.9277 97.7988 18.904 97.7988 17.6865C97.7988 16.458 97.666 15.4398 97.4004 14.6318C97.1458 13.8128 96.7363 13.1986 96.1719 12.7891C95.6074 12.3796 94.8714 12.1748 93.9639 12.1748C92.6247 12.1748 91.6507 12.6341 91.042 13.5527C90.4443 14.4714 90.1455 15.8493 90.1455 17.6865ZM112.226 27H107.162V1.16797H112.226V27ZM122.618 8.43945V27H117.555V8.43945H122.618ZM120.095 1.16797C120.847 1.16797 121.495 1.34505 122.037 1.69922C122.579 2.04232 122.851 2.68978 122.851 3.6416C122.851 4.58236 122.579 5.23535 122.037 5.60059C121.495 5.95475 120.847 6.13184 120.095 6.13184C119.331 6.13184 118.678 5.95475 118.136 5.60059C117.604 5.23535 117.339 4.58236 117.339 3.6416C117.339 2.68978 117.604 2.04232 118.136 1.69922C118.678 1.34505 119.331 1.16797 120.095 1.16797ZM144.814 17.6865C144.814 19.236 144.604 20.6084 144.184 21.8037C143.774 22.999 143.171 24.0117 142.374 24.8418C141.588 25.6608 140.636 26.2806 139.519 26.7012C138.412 27.1217 137.161 27.332 135.767 27.332C134.461 27.332 133.26 27.1217 132.164 26.7012C131.079 26.2806 130.133 25.6608 129.325 24.8418C128.528 24.0117 127.909 22.999 127.466 21.8037C127.034 20.6084 126.818 19.236 126.818 17.6865C126.818 15.6279 127.184 13.8848 127.914 12.457C128.645 11.0293 129.685 9.94466 131.035 9.20312C132.385 8.46159 133.996 8.09082 135.866 8.09082C137.604 8.09082 139.142 8.46159 140.481 9.20312C141.832 9.94466 142.889 11.0293 143.652 12.457C144.427 13.8848 144.814 15.6279 144.814 17.6865ZM131.981 17.6865C131.981 18.904 132.114 19.9277 132.38 20.7578C132.646 21.5879 133.061 22.2132 133.625 22.6338C134.189 23.0544 134.925 23.2646 135.833 23.2646C136.729 23.2646 137.454 23.0544 138.008 22.6338C138.572 22.2132 138.982 21.5879 139.236 20.7578C139.502 19.9277 139.635 18.904 139.635 17.6865C139.635 16.458 139.502 15.4398 139.236 14.6318C138.982 13.8128 138.572 13.1986 138.008 12.7891C137.443 12.3796 136.707 12.1748 135.8 12.1748C134.461 12.1748 133.487 12.6341 132.878 13.5527C132.28 14.4714 131.981 15.8493 131.981 17.6865Z" fill="#070707"/>
</svg>
