<?xml version="1.0" encoding="UTF-8"?>
<svg xmlns="http://www.w3.org/2000/svg" xmlns:xlink="http://www.w3.org/1999/xlink" width="59px" height="88px" viewBox="0 0 59 88" version="1.1">
<g id="surface1">
<path style=" stroke:none;fill-rule:nonzero;fill:rgb(3.921569%,81.176471%,51.372549%);fill-opacity:1;" d="M 14.753906 88 C 22.894531 88 29.5 81.429688 29.5 73.332031 L 29.5 58.667969 L 14.753906 58.667969 C 6.613281 58.667969 0.0078125 65.238281 0.0078125 73.332031 C 0.0078125 81.429688 6.613281 88 14.753906 88 Z M 14.753906 88 "/>
<path style=" stroke:none;fill-rule:nonzero;fill:rgb(63.529412%,34.901961%,100%);fill-opacity:1;" d="M 0.0078125 44 C 0.0078125 35.902344 6.613281 29.332031 14.753906 29.332031 L 29.5 29.332031 L 29.5 58.667969 L 14.753906 58.667969 C 6.613281 58.667969 0.0078125 52.097656 0.0078125 44 Z M 0.0078125 44 "/>
<path style=" stroke:none;fill-rule:nonzero;fill:rgb(94.901961%,30.588235%,11.764706%);fill-opacity:1;" d="M 0.0078125 14.667969 C 0.0078125 6.570312 6.613281 0 14.753906 0 L 29.5 0 L 29.5 29.332031 L 14.753906 29.332031 C 6.613281 29.332031 0.0078125 22.761719 0.0078125 14.667969 Z M 0.0078125 14.667969 "/>
<path style=" stroke:none;fill-rule:nonzero;fill:rgb(100%,44.705882%,38.431373%);fill-opacity:1;" d="M 29.5 0 L 44.246094 0 C 52.386719 0 58.992188 6.570312 58.992188 14.667969 C 58.992188 22.761719 52.386719 29.332031 44.246094 29.332031 L 29.5 29.332031 Z M 29.5 0 "/>
<path style=" stroke:none;fill-rule:nonzero;fill:rgb(10.196078%,73.72549%,99.607843%);fill-opacity:1;" d="M 58.992188 44 C 58.992188 52.097656 52.386719 58.667969 44.246094 58.667969 C 36.105469 58.667969 29.5 52.097656 29.5 44 C 29.5 35.902344 36.105469 29.332031 44.246094 29.332031 C 52.386719 29.332031 58.992188 35.902344 58.992188 44 Z M 58.992188 44 "/>
</g>
</svg>
