<svg width="182" height="26" viewBox="0 0 182 26" fill="none" xmlns="http://www.w3.org/2000/svg">
<path d="M0.371094 18.25C0.371094 20.875 1.53125 22.8438 3.85156 24.1562C5.04688 24.8359 6.19531 25.1758 7.29688 25.1758V21.2734C6.71094 21.2734 6.07812 21.0156 5.39844 20.5C4.67188 19.8906 4.29688 19.1406 4.27344 18.25V7.14062C4.27344 6.17969 4.67188 5.38281 5.46875 4.75C6.00781 4.35156 6.61719 4.14062 7.29688 4.11719V0.214844C4.74219 0.214844 2.78516 1.31641 1.42578 3.51953C0.816406 4.55078 0.464844 5.57031 0.371094 6.57812V18.25ZM9.08984 25.1758C10.5898 25.1523 12.0781 24.4258 13.5547 22.9961C14.9375 21.5898 15.6406 20.1953 15.6641 18.8125V12.5898H9.08984V16.2109H11.6914V18.3203C11.6914 19.3516 11.1523 20.207 10.0742 20.8867C9.67578 21.1445 9.34766 21.2734 9.08984 21.2734V25.1758ZM9.08984 4.11719C9.95703 4.14062 10.6719 4.55078 11.2344 5.34766C11.5625 5.86328 11.75 6.46094 11.7969 7.14062V8.26562L15.6641 6.85938C15.6641 5.05469 14.9141 3.44922 13.4141 2.04297C12.0781 0.824219 10.6367 0.214844 9.08984 0.214844V4.11719ZM18.3711 25V0.390625H22.3086V25H18.3711ZM24.1016 14.6289V11.1133H26.0703C28.1094 11.1133 29.2344 10.1406 29.4453 8.19531C29.4688 7.98438 29.4805 7.78516 29.4805 7.59766C29.4805 5.62891 28.5898 4.46875 26.8086 4.11719C26.4805 4.07031 26.1406 4.04688 25.7891 4.04688H24.1016V0.390625H26.2461C29.3633 0.460938 31.4609 1.62109 32.5391 3.87109C32.9844 4.80859 33.207 5.88672 33.207 7.10547C33.1836 9.70703 32.3867 11.5938 30.8164 12.7656C32.0352 13.4688 32.8086 14.7227 33.1367 16.5273C33.1836 16.832 33.2188 17.1133 33.2422 17.3711L33.8398 25H30.1836L29.6562 18.7422C29.4688 16.7734 28.9414 15.5312 28.0742 15.0156C27.5586 14.7578 26.9141 14.6289 26.1406 14.6289H24.1016ZM36.125 25V0.390625H48.9219V4.25781H40.0625V10.7969H45.6172V14.7344H40.0625V21.0977H48.9219V25H36.125ZM51.7344 25V0.390625H64.5312V4.25781H55.6719V10.7969H61.2266V14.7344H55.6719V21.0977H64.5312V25H51.7344ZM67.3789 25V6.64844H67.6602L71.3164 12.5195V25H67.3789ZM67.3789 2.92188V0.390625H70.6484L83.0234 20.2539V25H81.125L67.3789 2.92188ZM79.0859 10.6562V0.390625H83.0234V16.5273H82.7422L79.0859 10.6562ZM85.8711 18.25C85.8711 20.875 87.0312 22.8438 89.3516 24.1562C90.5469 24.8359 91.6953 25.1758 92.7969 25.1758V21.2734C92.2109 21.2734 91.5781 21.0156 90.8984 20.5C90.1719 19.8906 89.7969 19.1406 89.7734 18.25V7.14062C89.7734 6.17969 90.1719 5.38281 90.9688 4.75C91.5078 4.35156 92.1172 4.14062 92.7969 4.11719V0.214844C90.2422 0.214844 88.2852 1.31641 86.9258 3.51953C86.3164 4.55078 85.9648 5.57031 85.8711 6.57812V18.25ZM94.5898 25.1758C96.0898 25.1523 97.5781 24.4258 99.0547 22.9961C100.438 21.5898 101.141 20.1953 101.164 18.8125V12.5898H94.5898V16.2109H97.1914V18.3203C97.1914 19.3516 96.6523 20.207 95.5742 20.8867C95.1758 21.1445 94.8477 21.2734 94.5898 21.2734V25.1758ZM94.5898 4.11719C95.457 4.14062 96.1719 4.55078 96.7344 5.34766C97.0625 5.86328 97.25 6.46094 97.2969 7.14062V8.26562L101.164 6.85938C101.164 5.05469 100.414 3.44922 98.9141 2.04297C97.5781 0.824219 96.1367 0.214844 94.5898 0.214844V4.11719ZM103.766 18.1445V6.57812C103.766 5.33594 104.293 4.07031 105.348 2.78125C106.754 1.09375 108.535 0.238281 110.691 0.214844V4.11719C109.473 4.14062 108.559 4.79688 107.949 6.08594C107.762 6.50781 107.668 6.85938 107.668 7.14062V18.1445C107.668 19.4102 108.324 20.3477 109.637 20.957C110.035 21.1445 110.375 21.2383 110.656 21.2383V25.1758C109.32 25.1758 107.984 24.6953 106.648 23.7344C104.75 22.3281 103.789 20.4648 103.766 18.1445ZM112.59 25.1758V21.2383C113.199 21.2383 113.832 20.957 114.488 20.3945C115.191 19.7617 115.555 19.0117 115.578 18.1445V7.14062C115.578 6.4375 115.273 5.75781 114.664 5.10156C114.078 4.46875 113.387 4.14062 112.59 4.11719V0.214844C114.957 0.214844 116.855 1.23438 118.285 3.27344C119.105 4.44531 119.516 5.54688 119.516 6.57812V18.1445C119.516 20.7461 118.355 22.7383 116.035 24.1211C114.816 24.8242 113.668 25.1758 112.59 25.1758ZM122.293 24.9648V0.390625H135.09V4.25781H126.23V10.7969H131.785V14.7344H126.23V24.9648H122.293ZM137.586 24.9648V0.390625H150.383V4.25781H141.523V10.7969H147.078V14.7344H141.523V24.9648H137.586ZM152.879 25V0.390625H165.676V4.25781H156.816V10.7969H162.371V14.7344H156.816V21.0977H165.676V25H152.879ZM168.488 25V0.390625H181.285V4.25781H172.426V10.7969H177.98V14.7344H172.426V21.0977H181.285V25H168.488Z" fill="white"/>
</svg>
