<svg width="363" height="322" viewBox="0 0 363 322" fill="none" xmlns="http://www.w3.org/2000/svg">
<rect x="2" y="2" width="359" height="318" stroke="white" stroke-width="4"/>
<path d="M89.5469 121C89.5469 126.833 92.125 131.208 97.2812 134.125C99.9375 135.635 102.49 136.391 104.938 136.391V127.719C103.635 127.719 102.229 127.146 100.719 126C99.1042 124.646 98.2708 122.979 98.2188 121V96.3125C98.2188 94.1771 99.1042 92.4062 100.875 91C102.073 90.1146 103.427 89.6458 104.938 89.5938V80.9219C99.2604 80.9219 94.9115 83.3698 91.8906 88.2656C90.5365 90.5573 89.7552 92.8229 89.5469 95.0625V121ZM108.922 136.391C112.255 136.339 115.562 134.724 118.844 131.547C121.917 128.422 123.479 125.323 123.531 122.25V108.422H108.922V116.469H114.703V121.156C114.703 123.448 113.505 125.349 111.109 126.859C110.224 127.432 109.495 127.719 108.922 127.719V136.391ZM108.922 89.5938C110.849 89.6458 112.438 90.5573 113.688 92.3281C114.417 93.474 114.833 94.8021 114.938 96.3125V98.8125L123.531 95.6875C123.531 91.6771 121.865 88.1094 118.531 84.9844C115.562 82.276 112.359 80.9219 108.922 80.9219V89.5938ZM129.547 136V81.3125H138.297V136H129.547ZM142.281 112.953V105.141H146.656C151.188 105.141 153.688 102.979 154.156 98.6562C154.208 98.1875 154.234 97.7448 154.234 97.3281C154.234 92.9531 152.255 90.375 148.297 89.5938C147.568 89.4896 146.812 89.4375 146.031 89.4375H142.281V81.3125H147.047C153.974 81.4688 158.635 84.0469 161.031 89.0469C162.021 91.1302 162.516 93.526 162.516 96.2344C162.464 102.016 160.693 106.208 157.203 108.812C159.911 110.375 161.63 113.161 162.359 117.172C162.464 117.849 162.542 118.474 162.594 119.047L163.922 136H155.797L154.625 122.094C154.208 117.719 153.036 114.958 151.109 113.812C149.964 113.24 148.531 112.953 146.812 112.953H142.281ZM169 136V81.3125H197.438V89.9062H177.75V104.438H190.094V113.188H177.75V127.328H197.438V136H169ZM203.688 136V81.3125H232.125V89.9062H212.438V104.438H224.781V113.188H212.438V127.328H232.125V136H203.688ZM238.453 136V95.2188H239.078L247.203 108.266V136H238.453ZM238.453 86.9375V81.3125H245.719L273.219 125.453V136H269L238.453 86.9375ZM264.469 104.125V81.3125H273.219V117.172H272.594L264.469 104.125ZM75.8359 221.859C75.8359 224.88 76.9557 227.823 79.1953 230.688C82.2161 234.438 86.2526 236.339 91.3047 236.391V227.719C88.2318 227.719 86.1224 226.365 84.9766 223.656C84.6641 222.927 84.5078 222.328 84.5078 221.859V195.531C84.5078 194.125 85.1589 192.771 86.4609 191.469C87.8151 190.271 89.4297 189.646 91.3047 189.594V180.922C85.4193 180.922 80.9922 183.422 78.0234 188.422C76.5651 190.87 75.8359 193.24 75.8359 195.531V221.859ZM95.2891 236.391C99.4036 236.391 102.971 234.776 105.992 231.547C108.596 228.682 109.898 225.427 109.898 221.781L101.461 219.75C101.461 220.323 101.435 220.688 101.383 220.844C101.383 221.938 101.253 222.875 100.992 223.656C100.576 224.698 99.8984 225.557 98.9609 226.234C98.0234 226.911 97.1641 227.328 96.3828 227.484L95.2891 227.719V236.391ZM95.2891 189.594C95.2891 189.594 95.9661 189.802 97.3203 190.219C99.0911 191.104 100.315 192.38 100.992 194.047C101.253 194.828 101.383 195.714 101.383 196.703V197.875L109.898 195.688C109.898 191.677 108.232 188.109 104.898 184.984C101.93 182.276 98.7266 180.922 95.2891 180.922V189.594ZM114.898 220.766V195.062C114.898 192.302 116.07 189.49 118.414 186.625C121.539 182.875 125.497 180.974 130.289 180.922V189.594C127.581 189.646 125.549 191.104 124.195 193.969C123.779 194.906 123.57 195.688 123.57 196.312V220.766C123.57 223.578 125.029 225.661 127.945 227.016C128.831 227.432 129.586 227.641 130.211 227.641V236.391C127.242 236.391 124.273 235.323 121.305 233.188C117.086 230.062 114.951 225.922 114.898 220.766ZM134.508 236.391V227.641C135.862 227.641 137.268 227.016 138.727 225.766C140.289 224.359 141.096 222.693 141.148 220.766V196.312C141.148 194.75 140.471 193.24 139.117 191.781C137.815 190.375 136.279 189.646 134.508 189.594V180.922C139.768 180.922 143.987 183.188 147.164 187.719C148.987 190.323 149.898 192.771 149.898 195.062V220.766C149.898 226.547 147.32 230.974 142.164 234.047C139.456 235.609 136.904 236.391 134.508 236.391ZM156.07 235.922V181.312H184.508V189.906H164.82V204.438H177.164V213.188H164.82V235.922H156.07ZM190.055 235.922V181.312H218.492V189.906H198.805V204.438H211.148V213.188H198.805V235.922H190.055ZM224.039 236V181.312H252.477V189.906H232.789V204.438H245.133V213.188H232.789V227.328H252.477V236H224.039ZM258.727 236V181.312H287.164V189.906H267.477V204.438H279.82V213.188H267.477V227.328H287.164V236H258.727Z" fill="white"/>
<path d="M74 161H289.903" stroke="white" stroke-width="2"/>
</svg>
